<?xml version="1.0" encoding="UTF-8"?>
<svg id="Livello_1" data-name="Livello 1" xmlns="http://www.w3.org/2000/svg" viewBox="0 0 439.29 478.29">
  <defs>
    <style>
      .cls-1 {
        fill: #fff;
        stroke-width: 0px;
      }
    </style>
  </defs>
  <g>
    <g>
      <path class="cls-1" d="M117.12,198.64c3.14,4.64,6.66,8.54,8.69,13.1,6.6,14.82-3.57,31.52-19.97,32.95-5.44.47-11.05.23-16.46-.54-34.69-4.93-54.15,5.43-68.88,37.05-1.77,3.8-3.47,7.63-6.12,11.09-2.73-28.8-3.91-56.99,18.63-79.87,18.64-18.92,41.02-24.15,66.57-20.11,6.23.98,12.79.56,19.12,0,11.58-1.04,23.11-2.67,35.16-4.11-3.74-11.59-7.68-23.24-11.26-34.99-7.04-23.1-4.88-46.02,8.65-65.46,20.26-29.11,42.96-56.51,64.69-84.59.82-1.06,2.25-1.65,4.38-3.14,13.95,27.5,16.17,57.11,20.06,84.71,14.5,5.05,28.1,9.78,43.14,15.02,21.24-16.61,44.55-34.84,70.51-55.14,0,12.75.7,22.38-.13,31.88-2.52,28.84-4.82,57.75-8.74,86.42-4.46,32.57-22.19,55.18-54.26,65.44-7.91,2.53-15.65,5.56-23.66,8.42,6.06,9.04,12.2,17.28,17.39,26.08,27.66,46.95,1.77,100.67-52.17,106.04-12.31,1.23-26.05-3.14-37.86-8.02-12.81-5.29-17.83-21.58-13.82-34.91,3.68-12.24,14.2-19.66,28.71-19.28,7.27.19,14.51,2.53,21.76,2.47,7.89-.06,16.33-.32,23.51-3.12,11.42-4.45,15.48-17.23,10.83-28.44-21.97-52.97-84.99-88.76-142.3-80.76-2.06.29-4.03,1.18-6.15,1.82ZM309.01,167.54c-.26-18.86-15.9-34.12-34.7-33.87-18.82.25-34.42,16.08-34.13,34.63.28,18.3,16.91,34.62,34.88,34.24,18.45-.39,34.19-16.62,33.94-34.99ZM192.79,168.08c15.65-.12,28.75-13.07,28.88-28.57.14-15.58-13.89-29.27-29.76-29.05-15.57.22-28.75,13.4-28.81,28.81-.07,16.09,13.18,28.93,29.69,28.81Z"/>
      <path class="cls-1" d="M65.34,371.23c0-13.26,4-20.87,7.99-30.49,5.75-13.85,22.04-21.07,36.52-18.05,14.92,3.12,24.05,14.2,24.01,31.06-.02,9.45-1.92,18.91-3.13,28.35-2.17,16.89-3.01,33.59,5.08,49.45,10.5,20.6,26.01,27.78,48.16,21.21,33.61-9.98,58.15-31.63,76.24-61.09,17.94-29.21,43.91-45.79,78.01-48.43,25.78-2,47.6,6.8,63.56,27.82,15.64,20.59,15.45,46.7.05,67.41-6.15,8.27-13.68,13.53-24.35,11.23-10.25-2.21-12.24-10.97-12.97-19.45-2.54-29.49-34.88-42.84-60.55-23.97-6.71,4.93-12.47,11.31-18.05,17.58-14.32,16.1-30.38,29.65-50.73,37.58-37.21,14.49-74.5,14.25-111.48-.25-36.39-14.27-57.1-47.54-58.37-89.95Z"/>
      <path class="cls-1" d="M68.09,436.67c-23.66-12.27-45.06-27.26-57.05-52.57-9.81-20.71-13.95-42.48-8.86-65.23,3.78-16.9,18.2-25.94,33.52-21.7,15.8,4.37,22.69,18.61,16.68,35.79-12.29,35.15-9.32,67.7,15.45,96.88,1.09,1.28,1.75,2.92,2.61,4.39-.79.81-1.57,1.62-2.36,2.44Z"/>
    </g>
    <path class="cls-1" d="M200.04,119.06c-3.98,11.39-2.52,18.42,10.57,27.39-25.46-7.18-19.54,9.41-27.94,13.19,0-6.73,4.08-21.92-10.61-27.25,22.38,3.02,15.09-10.92,27.98-13.33Z"/>
    <path class="cls-1" d="M281.94,150.64c-3.98,11.39-2.52,18.42,10.57,27.39-25.46-7.18-19.54,9.41-27.94,13.19,0-6.73,4.08-21.92-10.61-27.25,22.38,3.02,15.09-10.92,27.98-13.33Z"/>
  </g>
  <path class="cls-1" d="M33.17,135.45c2.25-.45,4.52-.94,6.76-1.49,8.51-2.06,15.58.11,21.01,7.11,1.78,2.33,3.4,4.81,5.2,7.16,1.66,2.18,4.34,2.78,6.83,1.69,2.66-1.18,3.96-3.64,3.4-6.55-.56-2.76-1.27-5.48-1.82-8.22-1.46-7.59.63-13.97,6.64-18.92,2.44-2.03,5.14-3.73,7.68-5.63,2.37-1.77,3.06-4.42,1.97-6.99-1.16-2.68-3.57-3.96-6.55-3.39-2.61.51-5.24,1.14-7.82,1.7-7.71,1.64-14.27-.39-19.35-6.51-2.04-2.46-3.77-5.21-5.71-7.81-1.74-2.31-4.47-2.96-7.05-1.82-2.54,1.15-3.86,3.51-3.35,6.31.49,2.63,1.12,5.21,1.7,7.82,1.7,7.89-.36,14.5-6.67,19.65-2.43,1.98-5.07,3.66-7.58,5.54-2.35,1.8-3.02,4.43-1.88,7.01,1.16,2.61,3.64,3.89,6.58,3.33Z"/>
  <path class="cls-1" d="M349.05,257.55c2.8,1.54,5.65,3.05,8.52,4.47,10.89,5.44,16.47,14.08,15.96,26.39-.19,4.07-.7,8.16-.9,12.27-.19,3.8,2.11,6.84,5.75,7.92,3.89,1.13,7.48-.31,9.48-3.91,1.88-3.44,3.56-6.97,5.43-10.36,5.25-9.38,13.19-14.29,24.02-14.16,4.41.03,8.8.64,13.21.89,4.11.24,7.21-1.95,8.35-5.66,1.17-3.88-.24-7.42-3.92-9.47-3.24-1.8-6.58-3.49-9.84-5.2-9.67-5.17-14.83-13.21-14.73-24.26.04-4.45.66-8.92.93-13.42.23-4.02-2.1-7.15-5.87-8.25-3.73-1.05-7.25.27-9.22,3.7-1.84,3.23-3.48,6.54-5.2,9.83-5.26,9.91-13.39,15.09-24.7,14.91-4.36-.07-8.66-.65-13.03-.9-4.11-.2-7.18,2-8.28,5.76-1.11,3.81.38,7.4,4.01,9.45Z"/>
  <path class="cls-1" d="M9.75,468.72c1.44-.29,2.89-.6,4.31-.95,5.43-1.31,9.95.07,13.41,4.54,1.14,1.48,2.17,3.07,3.32,4.57,1.06,1.39,2.77,1.78,4.36,1.08,1.7-.75,2.53-2.32,2.17-4.18-.36-1.76-.81-3.5-1.16-5.24-.93-4.85.4-8.92,4.24-12.08,1.56-1.29,3.28-2.38,4.9-3.6,1.51-1.13,1.95-2.82,1.25-4.46-.74-1.71-2.28-2.53-4.18-2.17-1.67.33-3.34.73-4.99,1.09-4.92,1.05-9.11-.25-12.35-4.15-1.3-1.57-2.41-3.33-3.64-4.98-1.11-1.48-2.85-1.89-4.5-1.16-1.62.73-2.46,2.24-2.14,4.03.31,1.68.71,3.32,1.08,4.99,1.09,5.04-.23,9.26-4.26,12.54-1.55,1.27-3.23,2.33-4.84,3.54-1.5,1.15-1.93,2.83-1.2,4.47.74,1.67,2.32,2.48,4.2,2.13Z"/>
</svg>